<?xml version="1.0" encoding="utf-8"?>
<!-- Generator: Adobe Illustrator 21.0.2, SVG Export Plug-In . SVG Version: 6.00 Build 0)  -->
<svg version="1.1" id="Layer_1" xmlns="http://www.w3.org/2000/svg" xmlns:xlink="http://www.w3.org/1999/xlink" x="0px" y="0px"
	 viewBox="0 0 227 227" style="enable-background:new 0 0 227 227;" xml:space="preserve">
<style type="text/css">
	.st0{fill:#6D0633;}
	.st1{fill:#005E5B;}
	.st2{fill:#FFF46D;}
</style>
<path class="st0" d="M113.5,218.8c-58.2,0-105.3-47.2-105.3-105.3S55.3,8.2,113.5,8.2c58.2,0,105.3,47.2,105.3,105.3
	S171.7,218.8,113.5,218.8"/>
<path class="st1" d="M113.5,48.9c35.7,0,64.6,28.9,64.6,64.6c0,35.7-28.9,64.6-64.6,64.6c-35.7,0-64.6-28.9-64.6-64.6
	C48.9,77.8,77.8,48.9,113.5,48.9"/>
<path class="st2" d="M80.8,108.2c2.6-1.5,5.4-2.8,8.4-4c0.6,2.7,1.4,5.3,2.2,7.9c-2.3,1-4.5,2-6.5,3.2
	c-11.2,6.5-15.4,14.3-16.1,19.4l25.8-14.9c0.6,1.2,1.3,2.4,1.9,3.6c0.6,1.2,1.4,2.3,2.1,3.5l-25.8,14.9c4.7,2,13.6,2.2,24.8-4.3
	c7-4,14.1-10.6,18.8-17.1c1.1-1.5,1.9-2.8,2.5-4c0.6-0.9,1.1-1.9,1.7-3.1c2.6,0.4,5.4,1.1,8.1,1.9c-0.8,1.9-1.8,3.8-2.8,5.4
	c-4.9,8.8-14.5,18.3-24.2,23.9c-7.7,4.5-15.8,6.6-22.8,6.5c9.1,8.4,21.2,13.5,34.6,13.5c10.5,0,20.3-3.2,28.4-8.6
	c4.6,0.7,9.1,0.6,13.2-0.3c-10.7,10.5-25.4,17-41.6,17c-21.9,0-41.1-11.9-51.3-29.6h0C56.4,133.1,64.7,117.4,80.8,108.2 M133.8,97.1
	c-2.6-0.8-5.3-1.5-8-2c0.3-2.5,0.5-4.9,0.5-7.3c0-13-4.6-20.5-8.7-23.6V94c-1.4-0.1-2.8-0.1-4.1-0.1c-1.3,0-2.7,0-4.1,0.1V64.2
	c-4.1,3.1-8.7,10.6-8.7,23.6c0,8.1,2.1,17.5,5.4,24.8c0.8,1.7,1.5,3,2.2,4.2c0.5,0.9,1.1,1.9,1.9,3c-1.7,2.1-3.6,4.1-5.7,6
	c-1.3-1.7-2.4-3.4-3.3-5.1c-5.2-8.7-8.6-21.7-8.6-32.8c0-8.9,2.2-17.1,5.7-23.1c-20.8,6.5-35.9,25.9-35.9,48.8c0,1.1,0,2.3,0.1,3.4
	c-2.9,3.7-5.1,7.6-6.4,11.6c-1.2-4.8-1.9-9.8-1.9-14.9c0-32.7,26.5-59.2,59.2-59.2v0c11.6,0,21,15,21,33.5
	C134.5,90.8,134.2,93.9,133.8,97.1 M164.8,143.1L164.8,143.1c-5.8,10-23.5,10.7-39.5,1.4c-2.6-1.5-5.2-3.3-7.7-5.2
	c2-1.9,4-3.9,5.7-5.9c2,1.5,4,2.9,6,4.1c11.2,6.5,20.1,6.2,24.8,4.3l-25.8-14.9c0.8-1.2,1.5-2.3,2.1-3.5c0.7-1.1,1.3-2.4,2-3.6
	l25.8,14.9c-0.7-5.1-4.9-12.9-16.1-19.4c-7-4-16.2-7-24.2-7.7c-1.8-0.2-3.4-0.2-4.7-0.2c-1.1,0-2.2,0-3.5,0.1
	c-0.9-2.5-1.7-5.2-2.4-8c2.1-0.2,4.2-0.3,6.1-0.3c10.1-0.2,23.1,3.4,32.7,9c7.7,4.5,13.7,10.4,17.1,16.5c0.8-3.6,1.2-7.4,1.2-11.2
	c0-20.1-11.6-37.5-28.5-45.8c-1.7-4.3-4-8.2-6.8-11.3c25.1,6.9,43.5,29.9,43.5,57.1C172.7,124.3,169.8,134.4,164.8,143.1
	 M73.5,167.8c0.1,1.4-1,2.6-2.4,2.7c-1.4,0.1-2.6-1-2.7-2.4c-0.1-1.4,1-2.6,2.4-2.7C72.2,165.3,73.4,166.4,73.5,167.8 M65.4,160.8
	c-1.4,0.1-2.5,1.3-2.4,2.7c0.1,1.4,1.3,2.5,2.7,2.4c1.4-0.1,2.5-1.3,2.4-2.7C68,161.8,66.8,160.7,65.4,160.8 M113.5,8.2
	c-56.8,0-103.1,45-105.2,101.2h20.3v8.2H8.3c2.2,56.3,48.4,101.2,105.2,101.2c56.8,0,103.1-45,105.2-101.2h-20.3v-8.2h20.3
	C216.6,53.1,170.3,8.2,113.5,8.2 M113.5,227C50.8,227,0,176.2,0,113.5C0,50.8,50.8,0,113.5,0C176.2,0,227,50.8,227,113.5
	C227,176.2,176.2,227,113.5,227 M103.5,40.6h5.9v-8.7h8.2v8.7h5.9V18.3h-5.9v8.1h-8.2v-8.1h-5.9V40.6z M195.3,64.1l7.1,14.3
	l-4.6,2.3l-4.5-9.1l-3.1,1.5l3.7,7.4l-4.3,2.1l-3.7-7.4l-3.4,1.7l4.8,9.7l-4.6,2.3l-7.4-15L195.3,64.1z M151.1,50.9l5.2,3.4
	l19.1-14.1l-5.3-3.5l-12.5,10.3l4.4-15.7l-5.4-3.6L151.1,50.9z M72.1,42.8l-6.4-5.6l2.2,8.3L72.1,42.8z M60.3,34.5l5.7-3.6
	l18.5,14.7L79.1,49l-3.7-3.1l-6.3,3.9l1.2,4.7l-5.2,3.2L60.3,34.5z M43.5,91l2.5-5.3l-5.9-2.8l-1.3-3l10.5-1.1l3.1-6.5l-16,1.9
	l-4.6-10.4l-2.9,6.2l4.7,9.6l-7.5-3.6l-2.5,5.3L43.5,91z M181.1,142.2l2.1-5.5l20.8,7.9l-2.1,5.5L181.1,142.2z M180,179.1
	c1.4-0.2,2.9-0.7,4.3-1.5c1.4-0.8,2.8-2.1,4.2-3.8c0.8-1,1.4-2,1.8-3.1c0.4-1.1,0.6-2.1,0.7-3.1c0-1-0.1-2-0.5-2.9
	c-0.4-0.9-1-1.7-1.8-2.3c-0.9-0.7-1.8-1.2-2.7-1.4c-0.9-0.2-1.7-0.2-2.5-0.1c-0.8,0.1-1.6,0.4-2.3,0.8c-0.7,0.4-1.4,0.8-2.1,1.3
	l-0.9,0.6c-0.4,0.3-0.8,0.5-1.2,0.8c-0.4,0.2-0.7,0.4-1,0.5c-0.3,0.1-0.6,0.2-0.9,0.1c-0.3,0-0.6-0.1-0.8-0.3
	c-0.2-0.2-0.4-0.4-0.5-0.7c-0.1-0.2-0.1-0.5-0.1-0.8c0-0.3,0.1-0.5,0.3-0.8c0.1-0.3,0.3-0.5,0.5-0.7c0.6-0.7,1.2-1.3,2.1-1.7
	c0.8-0.4,1.7-0.8,2.6-1l-1.1-4.7c-0.4,0-0.8,0.1-1.4,0.3c-0.6,0.2-1.2,0.4-1.8,0.7c-0.6,0.3-1.3,0.8-2,1.4c-0.7,0.6-1.4,1.3-2.1,2.1
	c-0.9,1.1-1.5,2.2-1.9,3.2c-0.4,1.1-0.5,2.1-0.5,3.1c0.1,1,0.3,1.9,0.8,2.7c0.4,0.8,1.1,1.6,1.9,2.2c0.7,0.6,1.4,0.9,2.2,1.1
	c0.8,0.2,1.5,0.2,2.2,0c0.7-0.1,1.5-0.3,2.2-0.7c0.7-0.3,1.4-0.7,2-1.1l1.1-0.7c1-0.7,1.8-1.1,2.5-1.3c0.7-0.2,1.2-0.2,1.7,0.2
	c0.3,0.2,0.5,0.5,0.5,0.7c0.1,0.3,0.1,0.5,0,0.8c-0.1,0.3-0.1,0.6-0.3,0.8c-0.2,0.3-0.3,0.5-0.5,0.8c-0.8,0.9-1.6,1.6-2.7,2.1
	c-1,0.5-2,0.7-2.8,0.8L180,179.1z M156.9,188.6l-6.1-6l1.6,8.4L156.9,188.6z M145.6,179.6l6-3.2l17.5,15.8l-5.6,3l-3.5-3.4l-6.5,3.5
	l0.9,4.7l-5.4,2.9L145.6,179.6z M121.9,208.8l5.9-0.7l-1.1-8.8l6.3-14.2l-6.5,0.8l-3.1,8.4l-5.2-7.4l-6.7,0.8l9.4,12.4L121.9,208.8z
	 M82.9,181l5.2,1.5l4.6,14.3l3.6-11.9l5.6,1.7L95.4,208l-4.8-1.4l-4.8-14.8L82.1,204l-5.6-1.7L82.9,181z M49.4,173.1
	c-1,1.1-1.6,2.2-2,3.4c-0.4,1.2-0.5,2.3-0.4,3.5c0.1,1.2,0.5,2.3,1.1,3.4c0.6,1.1,1.5,2.1,2.5,3c1.1,0.9,2.2,1.6,3.3,2
	c1.2,0.4,2.3,0.6,3.5,0.6c1.2,0,2.3-0.3,3.4-0.9c1.1-0.6,2.1-1.4,3-2.5l8.9-10.3l-4.5-3.9l-8.5,9.9c-0.8,0.9-1.6,1.5-2.6,1.7
	c-0.9,0.2-1.9-0.1-2.9-0.9c-1-0.9-1.4-1.8-1.4-2.7c0.1-1,0.5-1.9,1.3-2.8l8.5-9.9l-4.5-3.9L49.4,173.1z M31.1,150.9
	c0.8,1.7,2,2.9,3.4,3.3c1.4,0.5,3,0.3,4.5-0.4c0.8-0.4,1.5-0.8,2-1.4c0.5-0.5,0.9-1.1,1.2-1.8c0.3-0.7,0.4-1.4,0.3-2.2
	c-0.1-0.8-0.3-1.7-0.8-2.6l-1-2.2l-10.7,5.1L31.1,150.9z M43,136.1l3.7,7.7c0.7,1.5,1.2,3.1,1.4,4.6c0.2,1.5,0.2,2.9-0.2,4.3
	c-0.4,1.4-1.1,2.6-2.1,3.8c-1,1.2-2.4,2.1-4.2,3c-1.7,0.8-3.2,1.2-4.7,1.2c-1.5,0-2.9-0.2-4.2-0.8c-1.3-0.6-2.5-1.4-3.5-2.5
	c-1-1.1-1.9-2.5-2.6-4l-3.6-7.7L43,136.1z"/>
</svg>
